# xmcd
#
# Track frame offsets: 
#        182
#        32037
#        56327
#        77225
#        94805
#        113657
#        139870
#        164412
#
# Disc length: 2490 seconds
#
# Revision: 3
# Processed by: cddbd v1.5.2PL0 Copyright (c) Steve Scherf et al.
# Submitted via: ExactAudioCopy v0.99pb4
#
DISCID=6209b808
DTITLE=Vio-lence - Oppressing The Masses
DYEAR=1990
DGENRE=Thrash Metal
TTITLE0=I Profit
TTITLE1=Officer Nice
TTITLE2=Subterfuge
TTITLE3=Engulfed By Flames
TTITLE4=World In A World
TTITLE5=Mentally Afflicted
TTITLE6=Liquid Courage 
TTITLE7=Oppressing The Masses
EXTD=YEAR: 1990
EXTT0=
EXTT1=
EXTT2=
EXTT3=
EXTT4=
EXTT5=
EXTT6=
EXTT7=
PLAYORDER=
